<svg id="visual" viewBox="0 0 900 600" width="900" height="600" xmlns="http://www.w3.org/2000/svg" xmlns:xlink="http://www.w3.org/1999/xlink" version="1.1"><rect x="0" y="0" width="900" height="600" fill="#2D2F30"></rect><defs><linearGradient id="grad1_0" x1="33.3%" y1="0%" x2="100%" y2="100%"><stop offset="20%" stop-color="#2d2f30" stop-opacity="1"></stop><stop offset="80%" stop-color="#2d2f30" stop-opacity="1"></stop></linearGradient></defs><defs><linearGradient id="grad2_0" x1="0%" y1="0%" x2="66.7%" y2="100%"><stop offset="20%" stop-color="#2d2f30" stop-opacity="1"></stop><stop offset="80%" stop-color="#2d2f30" stop-opacity="1"></stop></linearGradient></defs><g transform="translate(900, 0)"><path d="M0 324.5C-42.9 320.3 -85.7 316.2 -124.2 299.8C-162.6 283.4 -196.6 254.9 -222.7 222.7C-248.8 190.6 -267.1 154.8 -282.7 117.1C-298.4 79.4 -311.4 39.7 -324.5 0L0 0Z" fill="#FBAE3C"></path></g><g transform="translate(0, 600)"><path d="M0 -324.5C47.2 -324.6 94.4 -324.7 124.2 -299.8C154 -274.9 166.5 -225 193 -193C219.6 -161.1 260.3 -147.1 284.6 -117.9C308.8 -88.7 316.7 -44.3 324.5 0L0 0Z" fill="#FBAE3C"></path></g></svg>